<mxfile host="app.diagrams.net" agent="Mozilla/5.0 (Windows NT 10.0; Win64; x64) AppleWebKit/537.36 (KHTML, like Gecko) Chrome/132.0.0.0 Safari/537.36" version="26.0.14">
  <diagram name="Page-1" id="GH_cP8fi8eIx-wbJ67nb">
    <mxGraphModel dx="1100" dy="533" grid="1" gridSize="10" guides="1" tooltips="1" connect="1" arrows="1" fold="1" page="1" pageScale="1" pageWidth="850" pageHeight="1100" math="0" shadow="0">
      <root>
        <mxCell id="0" />
        <mxCell id="1" parent="0" />
        <mxCell id="FryeHmmKTwGuI7qgCqBT-3" style="edgeStyle=orthogonalEdgeStyle;rounded=0;orthogonalLoop=1;jettySize=auto;html=1;exitX=1;exitY=0;exitDx=0;exitDy=0;entryX=0;entryY=0.25;entryDx=0;entryDy=0;" edge="1" parent="1" source="FryeHmmKTwGuI7qgCqBT-1" target="FryeHmmKTwGuI7qgCqBT-2">
          <mxGeometry relative="1" as="geometry">
            <mxPoint x="560" y="200" as="targetPoint" />
          </mxGeometry>
        </mxCell>
        <mxCell id="FryeHmmKTwGuI7qgCqBT-4" value="GENERATE&amp;nbsp;&lt;div&gt;LAPORAN BERUPA&amp;nbsp;&lt;/div&gt;&lt;div&gt;PDF&lt;/div&gt;" style="edgeLabel;html=1;align=center;verticalAlign=middle;resizable=0;points=[];" vertex="1" connectable="0" parent="FryeHmmKTwGuI7qgCqBT-3">
          <mxGeometry x="0.0678" y="-1" relative="1" as="geometry">
            <mxPoint y="1" as="offset" />
          </mxGeometry>
        </mxCell>
        <mxCell id="FryeHmmKTwGuI7qgCqBT-8" style="edgeStyle=orthogonalEdgeStyle;rounded=0;orthogonalLoop=1;jettySize=auto;html=1;entryX=0.5;entryY=0;entryDx=0;entryDy=0;" edge="1" parent="1" source="FryeHmmKTwGuI7qgCqBT-1" target="FryeHmmKTwGuI7qgCqBT-7">
          <mxGeometry relative="1" as="geometry" />
        </mxCell>
        <mxCell id="FryeHmmKTwGuI7qgCqBT-9" value="GENERATE LAPORAN&lt;div&gt;BERUPA PDF&lt;/div&gt;" style="edgeLabel;html=1;align=center;verticalAlign=middle;resizable=0;points=[];" vertex="1" connectable="0" parent="FryeHmmKTwGuI7qgCqBT-8">
          <mxGeometry x="-0.2182" y="-1" relative="1" as="geometry">
            <mxPoint as="offset" />
          </mxGeometry>
        </mxCell>
        <mxCell id="FryeHmmKTwGuI7qgCqBT-11" style="edgeStyle=orthogonalEdgeStyle;rounded=0;orthogonalLoop=1;jettySize=auto;html=1;" edge="1" parent="1" source="FryeHmmKTwGuI7qgCqBT-1" target="FryeHmmKTwGuI7qgCqBT-10">
          <mxGeometry relative="1" as="geometry">
            <Array as="points">
              <mxPoint x="340" y="190" />
              <mxPoint x="340" y="190" />
            </Array>
          </mxGeometry>
        </mxCell>
        <mxCell id="FryeHmmKTwGuI7qgCqBT-15" value="GENERATE&amp;nbsp;&lt;div&gt;LAPORAN BERUPA&amp;nbsp;&lt;/div&gt;&lt;div&gt;PDF&lt;/div&gt;" style="edgeLabel;html=1;align=center;verticalAlign=middle;resizable=0;points=[];" vertex="1" connectable="0" parent="FryeHmmKTwGuI7qgCqBT-11">
          <mxGeometry x="0.0072" y="1" relative="1" as="geometry">
            <mxPoint as="offset" />
          </mxGeometry>
        </mxCell>
        <mxCell id="FryeHmmKTwGuI7qgCqBT-1" value="SISTEM LAUNDRY" style="ellipse;whiteSpace=wrap;html=1;aspect=fixed;" vertex="1" parent="1">
          <mxGeometry x="380" y="180" width="80" height="80" as="geometry" />
        </mxCell>
        <mxCell id="FryeHmmKTwGuI7qgCqBT-5" style="edgeStyle=orthogonalEdgeStyle;rounded=0;orthogonalLoop=1;jettySize=auto;html=1;" edge="1" parent="1" source="FryeHmmKTwGuI7qgCqBT-2" target="FryeHmmKTwGuI7qgCqBT-1">
          <mxGeometry relative="1" as="geometry">
            <Array as="points">
              <mxPoint x="630" y="230" />
              <mxPoint x="630" y="230" />
            </Array>
          </mxGeometry>
        </mxCell>
        <mxCell id="FryeHmmKTwGuI7qgCqBT-6" value="CRUD TRANSAKSI, PELANGGAN&lt;div&gt;OUTLET, PRODUK, USER&lt;/div&gt;" style="edgeLabel;html=1;align=center;verticalAlign=middle;resizable=0;points=[];" vertex="1" connectable="0" parent="FryeHmmKTwGuI7qgCqBT-5">
          <mxGeometry x="0.0723" y="2" relative="1" as="geometry">
            <mxPoint as="offset" />
          </mxGeometry>
        </mxCell>
        <mxCell id="FryeHmmKTwGuI7qgCqBT-2" value="ADMIN" style="rounded=0;whiteSpace=wrap;html=1;" vertex="1" parent="1">
          <mxGeometry x="690" y="176" width="120" height="60" as="geometry" />
        </mxCell>
        <mxCell id="FryeHmmKTwGuI7qgCqBT-7" value="OWNER" style="rounded=0;whiteSpace=wrap;html=1;" vertex="1" parent="1">
          <mxGeometry x="360" y="370" width="120" height="60" as="geometry" />
        </mxCell>
        <mxCell id="FryeHmmKTwGuI7qgCqBT-13" style="edgeStyle=orthogonalEdgeStyle;rounded=0;orthogonalLoop=1;jettySize=auto;html=1;" edge="1" parent="1" source="FryeHmmKTwGuI7qgCqBT-10" target="FryeHmmKTwGuI7qgCqBT-1">
          <mxGeometry relative="1" as="geometry">
            <Array as="points">
              <mxPoint x="330" y="230" />
              <mxPoint x="330" y="230" />
            </Array>
          </mxGeometry>
        </mxCell>
        <mxCell id="FryeHmmKTwGuI7qgCqBT-16" value="CRUD TRANSAKSI,&amp;nbsp;&lt;div&gt;PELANGGAN&lt;/div&gt;" style="edgeLabel;html=1;align=center;verticalAlign=middle;resizable=0;points=[];" vertex="1" connectable="0" parent="FryeHmmKTwGuI7qgCqBT-13">
          <mxGeometry x="0.0533" y="-5" relative="1" as="geometry">
            <mxPoint as="offset" />
          </mxGeometry>
        </mxCell>
        <mxCell id="FryeHmmKTwGuI7qgCqBT-10" value="KASIR" style="rounded=0;whiteSpace=wrap;html=1;" vertex="1" parent="1">
          <mxGeometry x="60" y="176" width="120" height="60" as="geometry" />
        </mxCell>
      </root>
    </mxGraphModel>
  </diagram>
</mxfile>
